# xmcd
# 
# Track frame offsets:
#     150
#     30263
#     47373
#     62753
#     136365
#     154240
#     185435
#     206425
#     236200
#     251220
# 
# Disc length: 3594
# 
# Revision: 7
# Processed by: cddbd v1.5.2PL0 Copyright (c) Steve Scherf et al.
# Submitted via: fre:ac v1.0.31
# 
DISCID=860e080a
DTITLE=Joni Mitchell - The Studio Albums Disc 9 Don Juan's Reckless Daughter
DYEAR=1977
DGENRE=Rock/Pop
TTITLE0=Overture - Cotton Avenue
TTITLE1=Talk To Me
TTITLE2=Jericho
TTITLE3=Paprika Plains
TTITLE4=Otis And Marlena
TTITLE5=The Tenth World
TTITLE6=Dreamland
TTITLE7=Don Juan's Reckless Daughter
TTITLE8=Off Night Backstreet
TTITLE9=The Silky Veils Of Ardor
EXTD=
EXTT0=
EXTT1=
EXTT2=
EXTT3=
EXTT4=
EXTT5=
EXTT6=
EXTT7=
EXTT8=
EXTT9=
PLAYORDER=
